<svg id="svg" version="1.1" xmlns="http://www.w3.org/2000/svg" xmlns:xlink="http://www.w3.org/1999/xlink" width="400" height="400" viewBox="0, 0, 400,400"><g id="svgg"><path id="path0" d="M0.000 200.000 L 0.000 400.000 200.000 400.000 L 400.000 400.000 400.000 200.000 L 400.000 0.000 200.000 0.000 L 0.000 0.000 0.000 200.000 M38.303 178.003 C 38.827 178.204,38.889 180.361,38.889 198.558 L 38.889 218.889 37.037 218.889 L 35.185 218.889 35.185 198.546 C 35.185 179.483,35.226 178.192,35.833 178.033 C 36.847 177.768,37.666 177.758,38.303 178.003 M88.378 178.426 C 88.770 178.782,92.820 186.532,97.379 195.647 C 103.284 207.456,105.789 212.119,106.090 211.869 C 106.322 211.676,107.006 210.469,107.608 209.185 C 108.211 207.902,108.805 206.769,108.929 206.667 C 109.053 206.565,109.379 205.856,109.652 205.093 C 109.925 204.329,110.282 203.704,110.445 203.704 C 110.608 203.704,110.741 203.370,110.741 202.963 C 110.741 202.556,110.907 202.222,111.111 202.222 C 111.315 202.222,111.485 202.014,111.490 201.759 C 111.495 201.505,112.322 199.713,113.329 197.778 C 114.335 195.843,116.901 190.750,119.030 186.460 C 123.327 177.801,123.488 177.585,125.366 177.938 L 126.667 178.182 126.667 198.556 L 126.667 218.929 124.907 218.817 L 123.148 218.704 122.963 202.778 L 122.778 186.852 120.688 190.926 C 119.539 193.167,116.039 200.068,112.911 206.263 C 106.981 218.004,106.495 218.691,104.907 217.578 C 104.503 217.295,100.919 210.600,96.942 202.699 C 92.965 194.798,89.444 187.833,89.117 187.222 C 88.564 186.188,88.523 187.243,88.521 202.520 L 88.519 218.929 86.759 218.817 L 85.000 218.704 84.904 198.826 C 84.819 181.120,84.872 178.884,85.394 178.363 C 86.165 177.592,87.491 177.620,88.378 178.426 M196.817 178.865 C 204.508 181.893,206.069 192.313,199.541 197.056 L 198.156 198.062 199.294 198.533 C 203.232 200.164,206.185 205.771,205.209 209.763 C 204.640 212.092,203.987 213.704,203.613 213.704 C 203.459 213.704,203.333 213.872,203.333 214.077 C 203.333 214.911,201.250 216.701,199.040 217.767 L 196.692 218.899 184.735 218.801 L 172.778 218.704 172.778 198.598 C 172.778 181.137,172.851 178.443,173.333 178.121 C 174.595 177.280,194.384 177.907,196.817 178.865 M251.356 178.003 C 252.157 178.217,252.157 178.219,252.284 192.720 C 252.370 202.590,252.544 207.459,252.829 207.963 C 253.059 208.370,253.465 209.170,253.732 209.739 C 257.231 217.204,270.540 218.537,276.282 211.997 C 279.029 208.868,279.034 208.834,279.250 192.963 C 279.452 178.118,279.490 177.778,280.917 177.778 C 283.076 177.778,282.963 176.964,282.963 192.513 C 282.963 206.275,282.848 208.026,281.806 210.088 C 281.628 210.441,281.481 210.983,281.481 211.291 C 281.481 211.600,281.315 211.852,281.111 211.852 C 280.907 211.852,280.741 212.094,280.741 212.391 C 280.741 213.357,276.919 216.869,274.815 217.837 C 271.388 219.414,270.294 219.630,265.739 219.630 C 257.398 219.630,252.370 216.549,249.415 209.630 C 248.341 207.113,248.096 178.309,249.147 178.037 C 250.161 177.774,250.485 177.769,251.356 178.003 M356.204 178.011 C 356.907 178.200,357.037 178.487,357.037 179.858 L 357.037 181.481 344.630 181.481 L 332.222 181.481 332.222 189.253 L 332.222 197.026 342.685 197.124 L 353.148 197.222 353.148 198.889 L 353.148 200.556 342.778 200.741 L 332.407 200.926 332.307 208.241 L 332.207 215.556 344.622 215.556 L 357.037 215.556 357.037 217.227 L 357.037 218.898 342.870 218.801 L 328.704 218.704 328.608 198.746 C 328.539 184.314,328.628 178.648,328.931 178.283 C 329.368 177.756,354.325 177.508,356.204 178.011 M176.667 189.074 L 176.667 196.667 185.140 196.667 C 195.502 196.667,197.051 196.196,198.952 192.469 C 200.917 188.617,198.364 182.222,194.861 182.222 C 194.452 182.222,194.015 182.056,193.889 181.852 C 193.747 181.622,190.428 181.481,185.163 181.481 L 176.667 181.481 176.667 189.074 M176.944 200.216 C 176.792 200.369,176.667 203.883,176.667 208.025 L 176.667 215.556 186.089 215.556 C 191.971 215.556,195.598 215.416,195.741 215.185 C 195.867 214.981,196.226 214.815,196.539 214.815 C 197.506 214.815,199.296 213.301,200.414 211.538 C 202.759 207.840,201.347 203.325,197.037 200.741 C 196.029 200.137,177.507 199.653,176.944 200.216 " stroke="none" fill="#fbfbfb" fill-rule="evenodd"></path><path id="path1" d="M35.926 198.519 L 35.926 218.519 37.037 218.519 L 38.148 218.519 38.148 198.519 L 38.148 178.519 37.037 178.519 L 35.926 178.519 35.926 198.519 M85.556 198.519 L 85.556 218.519 86.852 218.519 L 88.148 218.519 88.148 202.059 C 88.148 192.909,88.294 185.509,88.476 185.397 C 88.656 185.285,92.379 192.317,96.749 201.023 C 104.364 216.194,104.740 216.856,105.789 216.962 C 106.881 217.072,106.905 217.031,114.441 201.962 C 122.980 184.888,122.951 184.942,123.385 185.626 C 123.554 185.893,123.695 193.403,123.698 202.315 L 123.704 218.519 125.003 218.519 L 126.303 218.519 126.207 198.611 L 126.111 178.704 124.852 178.704 L 123.593 178.704 115.104 195.556 C 110.435 204.824,106.399 212.629,106.136 212.899 C 105.742 213.304,105.299 212.681,103.634 209.380 C 102.521 207.175,98.567 199.329,94.847 191.944 L 88.083 178.519 86.820 178.519 L 85.556 178.519 85.556 198.519 M173.704 198.489 L 173.704 218.519 184.574 218.519 C 191.462 218.519,195.906 218.369,196.704 218.112 C 206.094 215.076,207.734 204.367,199.568 199.407 L 197.278 198.016 198.176 197.441 C 199.851 196.369,202.222 193.658,202.222 192.815 C 202.222 192.513,202.389 192.163,202.593 192.037 C 202.796 191.911,202.963 190.566,202.963 189.048 C 202.963 184.611,201.253 181.805,197.270 179.707 L 195.370 178.706 184.537 178.583 L 173.704 178.460 173.704 198.489 M249.259 192.876 C 249.259 208.415,249.314 208.900,251.450 212.356 C 256.991 221.322,273.978 221.643,279.706 212.890 C 282.419 208.742,282.564 207.688,282.579 191.944 L 282.593 178.519 281.296 178.519 L 280.000 178.519 280.000 191.774 C 280.000 206.414,279.821 207.957,277.773 210.933 C 272.088 219.195,257.528 218.607,253.290 209.944 C 251.605 206.501,251.481 205.237,251.481 191.476 L 251.481 178.519 250.370 178.519 L 249.259 178.519 249.259 192.876 M329.259 198.519 L 329.259 218.519 342.778 218.519 L 356.296 218.519 356.296 217.227 L 356.296 215.936 344.167 215.838 L 332.037 215.741 332.037 207.963 L 332.037 200.185 342.500 200.087 L 352.963 199.988 352.963 198.889 L 352.963 197.789 342.500 197.691 L 332.037 197.593 332.037 189.444 L 332.037 181.296 344.167 181.199 L 356.296 181.101 356.296 179.810 L 356.296 178.519 342.778 178.519 L 329.259 178.519 329.259 198.519 M195.280 181.653 C 200.846 183.978,202.131 190.998,197.730 195.034 C 195.616 196.973,195.052 197.059,185.185 196.951 L 176.111 196.852 176.010 189.455 C 175.955 185.387,175.991 181.845,176.091 181.585 C 176.373 180.851,193.507 180.912,195.280 181.653 M197.071 200.231 C 203.803 203.345,203.672 212.442,196.852 215.425 C 195.000 216.236,178.070 216.677,176.712 215.950 C 175.756 215.438,175.461 200.616,176.389 199.683 C 177.275 198.792,194.974 199.261,197.071 200.231 " stroke="none" fill="#3a3a3b" fill-rule="evenodd"></path><path id="path2" d="M37.222 178.103 L 38.333 178.341 38.333 198.615 C 38.333 209.766,38.458 218.889,38.611 218.889 C 38.764 218.889,38.889 209.740,38.889 198.558 C 38.889 176.456,39.008 177.707,36.914 177.822 C 36.331 177.853,36.416 177.931,37.222 178.103 M123.206 178.455 C 122.868 178.828,122.593 179.281,122.593 179.463 C 122.593 179.645,122.844 179.435,123.152 178.996 C 123.460 178.556,124.168 178.127,124.726 178.043 L 125.741 177.889 124.780 177.833 C 124.251 177.803,123.543 178.083,123.206 178.455 M178.219 178.054 C 180.804 178.118,185.137 178.118,187.849 178.055 C 190.560 177.991,188.444 177.939,183.148 177.939 C 177.852 177.939,175.634 177.991,178.219 178.054 M279.863 178.071 C 279.763 178.232,280.253 178.297,280.952 178.215 C 281.651 178.134,282.222 178.002,282.222 177.922 C 282.222 177.644,280.042 177.781,279.863 178.071 M335.833 178.055 C 339.551 178.115,345.634 178.115,349.352 178.055 C 353.069 177.995,350.028 177.945,342.593 177.945 C 335.157 177.945,332.116 177.995,335.833 178.055 M35.185 198.519 C 35.185 209.722,35.310 218.889,35.463 218.889 C 35.616 218.889,35.741 209.722,35.741 198.519 C 35.741 187.315,35.616 178.148,35.463 178.148 C 35.310 178.148,35.185 187.315,35.185 198.519 M172.875 178.889 C 172.424 180.423,172.531 218.437,172.988 218.719 C 173.556 219.071,173.534 220.400,173.333 198.333 C 173.231 187.130,173.025 178.380,172.875 178.889 M194.630 178.519 C 195.037 178.694,195.620 178.837,195.926 178.837 C 196.276 178.837,196.208 178.719,195.741 178.519 C 195.333 178.343,194.750 178.200,194.444 178.200 C 194.094 178.200,194.163 178.318,194.630 178.519 M251.852 192.377 C 251.954 200.203,252.185 206.744,252.367 206.914 C 252.559 207.093,252.599 206.370,252.463 205.185 C 252.334 204.065,252.227 197.523,252.225 190.648 C 252.224 183.773,252.097 178.148,251.944 178.148 C 251.792 178.148,251.750 184.551,251.852 192.377 M356.481 179.815 C 356.481 180.731,356.606 181.481,356.759 181.481 C 356.912 181.481,357.037 180.731,357.037 179.815 C 357.037 178.898,356.912 178.148,356.759 178.148 C 356.606 178.148,356.481 178.898,356.481 179.815 M328.603 198.404 C 328.556 209.443,328.644 218.552,328.796 218.647 C 329.049 218.803,329.044 204.170,328.787 185.556 C 328.732 181.583,328.649 187.365,328.603 198.404 M84.899 198.589 C 84.853 209.526,84.940 218.552,85.093 218.647 C 85.345 218.803,85.341 203.821,85.083 185.741 C 85.028 181.870,84.945 187.652,84.899 198.589 M197.593 179.512 C 198.204 179.838,199.370 180.620,200.185 181.249 C 201.000 181.878,201.417 182.076,201.111 181.689 C 200.463 180.867,197.442 178.882,196.872 178.904 C 196.657 178.912,196.981 179.185,197.593 179.512 M279.342 192.222 C 279.291 199.454,279.163 205.787,279.059 206.296 L 278.868 207.222 279.253 206.344 C 279.503 205.775,279.603 200.827,279.537 192.270 L 279.435 179.074 279.342 192.222 M176.453 189.074 C 176.453 193.352,176.507 195.051,176.573 192.850 C 176.638 190.649,176.638 187.149,176.572 185.072 C 176.506 182.996,176.453 184.796,176.453 189.074 M197.098 183.372 C 198.559 184.725,199.232 185.836,199.656 187.593 C 199.900 188.605,199.927 188.621,199.956 187.778 C 200.001 186.467,198.562 184.133,197.037 183.041 L 195.741 182.114 197.098 183.372 M120.070 184.277 C 118.954 186.574,119.078 186.895,120.228 184.686 C 120.742 183.698,121.099 182.827,121.021 182.750 C 120.944 182.672,120.516 183.360,120.070 184.277 M92.222 186.014 C 92.222 186.401,93.834 189.253,93.973 189.113 C 94.049 189.038,93.751 188.331,93.312 187.544 C 92.454 186.006,92.222 185.680,92.222 186.014 M122.500 186.761 C 121.715 187.961,121.635 188.576,122.396 187.571 C 122.877 186.935,122.941 188.680,122.951 202.663 C 122.958 211.360,123.088 218.552,123.241 218.647 C 123.490 218.801,123.490 207.149,123.240 191.497 C 123.150 185.898,123.134 185.793,122.500 186.761 M88.955 186.944 C 89.837 188.869,93.385 195.556,93.524 195.556 C 93.626 195.556,92.707 193.556,91.481 191.111 C 90.256 188.667,89.158 186.667,89.040 186.667 C 88.923 186.667,88.884 186.792,88.955 186.944 M94.332 190.278 C 94.599 191.013,95.556 192.498,95.556 192.176 C 95.556 191.854,94.410 189.630,94.244 189.630 C 94.163 189.630,94.203 189.921,94.332 190.278 M199.680 190.293 C 199.599 191.648,198.271 193.924,196.955 194.961 C 196.287 195.487,195.916 195.920,196.131 195.922 C 197.326 195.934,200.161 191.657,199.888 190.253 C 199.733 189.459,199.730 189.459,199.680 190.293 M118.704 194.074 C 118.388 194.685,118.212 195.185,118.314 195.185 C 118.416 195.185,118.758 194.685,119.074 194.074 C 119.390 193.463,119.565 192.963,119.463 192.963 C 119.362 192.963,119.020 193.463,118.704 194.074 M202.222 193.575 C 202.222 193.776,201.604 194.679,200.848 195.581 C 200.092 196.484,199.860 196.889,200.333 196.481 C 201.500 195.474,202.724 193.712,202.448 193.435 C 202.324 193.311,202.222 193.374,202.222 193.575 M180.813 196.943 C 182.991 197.008,186.658 197.008,188.961 196.943 C 191.264 196.878,189.481 196.825,185.000 196.824 C 180.519 196.824,178.634 196.877,180.813 196.943 M115.631 200.205 C 114.775 201.931,114.083 203.467,114.093 203.617 C 114.103 203.766,114.864 202.413,115.783 200.610 C 116.702 198.806,117.394 197.271,117.321 197.198 C 117.248 197.125,116.488 198.478,115.631 200.205 M342.500 197.312 L 352.963 197.419 352.963 198.895 L 352.963 200.370 342.593 200.370 C 336.889 200.370,332.222 200.495,332.222 200.648 C 332.222 200.801,336.930 200.843,342.685 200.741 L 353.148 200.556 353.148 198.889 L 353.148 197.222 342.593 197.213 L 332.037 197.204 342.500 197.312 M112.270 199.797 C 111.182 202.111,111.311 202.459,112.425 200.214 C 112.922 199.211,113.268 198.329,113.193 198.255 C 113.119 198.181,112.703 198.874,112.270 199.797 M99.334 200.177 C 99.777 201.089,100.203 201.772,100.281 201.694 C 100.448 201.527,98.952 198.519,98.701 198.519 C 98.606 198.519,98.891 199.265,99.334 200.177 M199.444 198.764 C 200.391 199.661,202.716 201.177,202.154 200.531 C 201.812 200.137,200.978 199.499,200.303 199.114 C 199.627 198.729,199.241 198.571,199.444 198.764 M176.521 200.215 C 176.397 200.538,176.333 204.079,176.377 208.086 L 176.458 215.370 176.655 207.778 L 176.852 200.185 185.556 199.990 L 194.259 199.794 185.503 199.712 C 177.810 199.640,176.719 199.701,176.521 200.215 M199.327 202.459 C 200.063 203.302,200.780 204.357,200.922 204.802 C 201.063 205.247,201.259 205.531,201.357 205.433 C 201.682 205.108,200.456 203.166,199.213 202.037 C 197.998 200.933,197.999 200.936,199.327 202.459 M97.407 203.465 C 97.407 203.868,100.358 209.630,100.564 209.630 C 100.730 209.630,97.897 203.741,97.550 203.364 C 97.471 203.279,97.407 203.325,97.407 203.465 M248.612 205.370 C 248.616 206.185,248.692 206.475,248.780 206.014 C 248.869 205.553,248.866 204.887,248.773 204.533 C 248.680 204.179,248.608 204.556,248.612 205.370 M112.407 206.667 C 112.091 207.278,111.916 207.778,112.018 207.778 C 112.120 207.778,112.462 207.278,112.778 206.667 C 113.094 206.056,113.269 205.556,113.167 205.556 C 113.065 205.556,112.723 206.056,112.407 206.667 M204.935 207.922 C 204.946 209.433,205.066 210.188,205.229 209.774 C 205.589 208.857,205.579 207.042,205.209 206.111 C 205.023 205.642,204.922 206.305,204.935 207.922 M282.643 206.173 C 282.615 206.615,282.497 207.282,282.379 207.655 C 282.178 208.297,282.189 208.298,282.589 207.675 C 282.821 207.312,282.940 206.646,282.853 206.193 C 282.694 205.371,282.693 205.371,282.643 206.173 M253.868 210.606 C 254.457 211.847,257.609 214.829,258.293 214.793 C 258.519 214.781,258.373 214.573,257.968 214.330 C 257.020 213.762,254.795 211.562,253.963 210.370 C 253.321 209.450,253.320 209.452,253.868 210.606 M276.955 211.142 C 276.401 211.929,275.251 213.077,274.400 213.694 C 273.548 214.310,273.013 214.815,273.211 214.815 C 274.080 214.815,278.552 210.256,278.096 209.834 C 278.023 209.767,277.509 210.355,276.955 211.142 M106.186 211.703 C 105.820 212.192,105.655 212.593,105.820 212.593 C 106.142 212.593,107.165 211.112,106.970 210.926 C 106.905 210.864,106.552 211.214,106.186 211.703 M199.471 212.888 L 198.413 214.259 199.651 213.067 C 200.331 212.412,200.807 211.795,200.708 211.696 C 200.609 211.597,200.052 212.133,199.471 212.888 M251.863 213.887 C 252.731 215.067,253.333 215.635,253.333 215.276 C 253.333 215.093,252.880 214.540,252.326 214.046 C 251.587 213.387,251.464 213.345,251.863 213.887 M108.035 215.375 C 107.697 216.085,107.496 216.667,107.589 216.667 C 107.843 216.667,108.967 214.399,108.797 214.229 C 108.717 214.149,108.374 214.665,108.035 215.375 M278.254 215.074 C 277.803 215.543,277.569 215.926,277.734 215.926 C 278.095 215.926,279.442 214.486,279.226 214.331 C 279.142 214.271,278.705 214.605,278.254 215.074 M200.963 216.322 C 200.169 216.919,199.676 217.407,199.866 217.407 C 200.057 217.407,200.790 216.914,201.495 216.311 C 203.136 214.909,202.834 214.915,200.963 216.322 M180.813 215.832 C 182.991 215.897,186.658 215.897,188.961 215.832 C 191.264 215.767,189.481 215.714,185.000 215.713 C 180.519 215.713,178.634 215.766,180.813 215.832 M261.296 215.926 C 262.404 216.402,263.329 216.402,262.593 215.926 C 262.287 215.728,261.704 215.576,261.296 215.587 L 260.556 215.608 261.296 215.926 M269.074 215.926 L 268.333 216.244 269.074 216.265 C 269.481 216.276,270.065 216.123,270.370 215.926 C 271.107 215.450,270.181 215.450,269.074 215.926 M356.481 217.222 C 356.481 218.139,356.606 218.889,356.759 218.889 C 356.912 218.889,357.037 218.139,357.037 217.222 C 357.037 216.306,356.912 215.556,356.759 215.556 C 356.606 215.556,356.481 216.306,356.481 217.222 M103.704 216.187 C 103.704 216.912,105.512 218.090,106.306 217.882 C 107.552 217.557,107.432 217.183,106.131 217.335 C 105.174 217.447,104.775 217.290,104.305 216.619 C 103.974 216.147,103.704 215.953,103.704 216.187 M276.089 216.840 C 275.694 217.139,275.537 217.384,275.741 217.384 C 275.944 217.384,276.435 217.139,276.830 216.840 C 277.225 216.541,277.382 216.296,277.179 216.296 C 276.975 216.296,276.485 216.541,276.089 216.840 M196.296 218.519 C 195.533 218.763,195.501 218.821,196.111 218.846 C 196.519 218.863,197.102 218.716,197.407 218.519 C 198.056 218.099,197.606 218.099,196.296 218.519 M260.370 219.259 C 260.676 219.457,261.259 219.609,261.667 219.598 L 262.407 219.578 261.667 219.259 C 260.559 218.783,259.634 218.783,260.370 219.259 M270.000 219.259 C 269.237 219.504,269.205 219.561,269.815 219.587 C 270.222 219.604,270.806 219.457,271.111 219.259 C 271.760 218.840,271.310 218.840,270.000 219.259 " stroke="none" fill="#afafaf" fill-rule="evenodd"></path><path id="path3" d="M35.735 178.587 C 35.632 178.855,35.593 187.991,35.648 198.889 L 35.747 218.704 35.837 198.611 L 35.926 178.519 37.037 178.519 L 38.148 178.519 38.148 198.494 L 38.148 218.469 37.130 218.640 C 36.162 218.802,36.167 218.808,37.222 218.757 L 38.333 218.704 38.333 198.519 L 38.333 178.333 37.127 178.217 C 36.381 178.145,35.850 178.287,35.735 178.587 M85.355 178.611 C 85.258 178.866,85.223 187.991,85.277 198.889 L 85.377 218.704 85.466 198.633 L 85.556 178.563 86.944 178.418 L 88.333 178.273 86.933 178.210 C 86.103 178.174,85.460 178.337,85.355 178.611 M123.576 178.426 C 123.481 178.579,124.039 178.704,124.815 178.704 C 125.591 178.704,126.148 178.579,126.054 178.426 C 125.959 178.273,125.402 178.148,124.815 178.148 C 124.228 178.148,123.670 178.273,123.576 178.426 M173.503 178.611 C 173.406 178.866,173.369 187.991,173.422 198.889 L 173.519 218.704 184.167 218.712 L 194.815 218.721 184.259 218.614 L 173.704 218.507 173.704 198.519 L 173.704 178.531 183.611 178.426 L 193.519 178.321 183.599 178.234 C 175.941 178.168,173.640 178.254,173.503 178.611 M249.058 178.613 C 248.960 178.868,248.925 185.243,248.982 192.779 L 249.083 206.481 249.171 192.500 L 249.259 178.519 250.370 178.519 L 251.481 178.519 251.508 191.759 C 251.522 199.042,251.647 205.286,251.785 205.636 C 252.058 206.327,251.944 179.373,251.671 178.611 C 251.454 178.008,249.289 178.009,249.058 178.613 M279.798 178.613 C 279.700 178.868,279.666 185.077,279.722 192.409 L 279.824 205.741 279.912 192.152 L 280.000 178.563 281.389 178.418 L 282.778 178.273 281.377 178.210 C 280.545 178.173,279.904 178.337,279.798 178.613 M329.061 178.607 C 328.962 178.864,328.925 187.991,328.978 198.889 L 329.074 218.704 342.407 218.711 L 355.741 218.718 342.500 218.613 L 329.259 218.509 329.259 198.514 L 329.259 178.519 342.755 178.519 L 356.252 178.519 356.405 179.818 L 356.559 181.118 356.520 179.725 L 356.481 178.333 342.861 178.236 C 332.162 178.160,329.201 178.239,329.061 178.607 M282.758 191.296 C 282.758 198.019,282.808 200.821,282.870 197.524 C 282.931 194.226,282.931 188.726,282.870 185.301 C 282.809 181.876,282.758 184.574,282.758 191.296 M176.173 181.358 C 175.831 181.700,175.860 196.582,176.204 196.795 C 176.356 196.890,176.433 193.539,176.374 189.348 C 176.290 183.436,176.373 181.661,176.744 181.426 C 177.016 181.253,177.049 181.120,176.821 181.117 C 176.600 181.114,176.309 181.222,176.173 181.358 M192.253 181.244 C 192.338 181.317,193.074 181.479,193.889 181.604 C 194.898 181.758,195.193 181.718,194.815 181.477 C 194.309 181.154,191.894 180.935,192.253 181.244 M338.056 181.388 C 341.366 181.450,346.782 181.450,350.093 181.388 C 353.403 181.327,350.694 181.277,344.074 181.277 C 337.454 181.277,334.745 181.327,338.056 181.388 M123.513 202.222 L 123.519 218.704 124.630 218.738 C 125.670 218.771,125.676 218.763,124.726 218.622 L 123.711 218.472 123.609 202.106 L 123.507 185.741 123.513 202.222 M203.078 188.704 C 203.080 189.926,203.149 190.381,203.231 189.716 C 203.314 189.050,203.312 188.050,203.228 187.493 C 203.143 186.937,203.076 187.481,203.078 188.704 M200.115 189.074 C 200.117 190.296,200.186 190.752,200.268 190.086 C 200.351 189.420,200.349 188.420,200.265 187.864 C 200.180 187.307,200.113 187.852,200.115 189.074 M332.172 197.506 C 332.329 197.662,337.029 197.745,342.617 197.691 L 352.778 197.592 342.333 197.407 C 336.588 197.305,332.016 197.350,332.172 197.506 M198.519 198.643 C 198.519 198.894,201.180 200.425,201.339 200.266 C 201.413 200.192,200.808 199.758,199.996 199.301 C 199.183 198.845,198.519 198.549,198.519 198.643 M176.370 199.704 C 175.871 200.203,175.712 215.380,176.204 215.684 C 176.356 215.778,176.481 212.246,176.481 207.835 L 176.481 199.815 185.556 199.620 L 194.630 199.425 185.722 199.342 C 179.193 199.281,176.696 199.378,176.370 199.704 M332.099 200.247 C 331.963 200.383,331.854 200.674,331.858 200.895 C 331.861 201.137,331.978 201.115,332.153 200.839 C 332.369 200.500,335.049 200.356,342.611 200.278 L 352.778 200.173 342.562 200.086 C 336.943 200.039,332.235 200.111,332.099 200.247 M203.722 203.333 C 203.718 203.435,203.955 204.185,204.249 205.000 C 204.542 205.815,204.784 206.148,204.785 205.741 C 204.788 205.125,203.746 202.764,203.722 203.333 M279.101 207.249 C 278.964 207.791,278.924 208.307,279.012 208.394 C 279.099 208.482,279.282 208.109,279.418 207.566 C 279.554 207.023,279.594 206.508,279.507 206.421 C 279.420 206.333,279.237 206.706,279.101 207.249 M199.465 213.310 L 198.004 215.000 199.632 213.439 C 200.527 212.580,201.185 211.819,201.093 211.748 C 201.001 211.678,200.269 212.380,199.465 213.310 M255.185 212.778 C 255.876 213.491,256.525 214.074,256.627 214.074 C 256.729 214.074,256.247 213.491,255.556 212.778 C 254.865 212.065,254.216 211.481,254.114 211.481 C 254.012 211.481,254.494 212.065,255.185 212.778 M251.402 212.778 C 251.617 213.185,252.509 214.185,253.384 215.000 C 254.956 216.463,254.453 215.830,251.179 212.222 C 251.086 212.120,251.187 212.370,251.402 212.778 M338.056 215.833 C 341.366 215.894,346.782 215.894,350.093 215.833 C 353.403 215.771,350.694 215.721,344.074 215.721 C 337.454 215.721,334.745 215.771,338.056 215.833 M181.019 216.202 C 183.310 216.267,187.060 216.267,189.352 216.202 C 191.644 216.137,189.769 216.084,185.185 216.084 C 180.602 216.084,178.727 216.137,181.019 216.202 M356.390 217.222 C 356.394 218.037,356.470 218.327,356.558 217.866 C 356.647 217.405,356.643 216.739,356.551 216.385 C 356.458 216.030,356.386 216.407,356.390 217.222 M104.397 216.759 C 104.711 217.159,105.349 217.386,106.064 217.352 L 107.222 217.296 106.111 217.134 C 105.500 217.045,104.750 216.778,104.444 216.541 C 103.961 216.167,103.955 216.195,104.397 216.759 M262.500 216.558 C 262.958 216.646,263.708 216.646,264.167 216.558 C 264.625 216.469,264.250 216.397,263.333 216.397 C 262.417 216.397,262.042 216.469,262.500 216.558 M267.315 216.558 C 267.773 216.646,268.523 216.646,268.981 216.558 C 269.440 216.469,269.065 216.397,268.148 216.397 C 267.231 216.397,266.856 216.469,267.315 216.558 M86.389 218.774 C 86.745 218.867,87.329 218.867,87.685 218.774 C 88.042 218.681,87.750 218.604,87.037 218.604 C 86.324 218.604,86.032 218.681,86.389 218.774 M260.370 218.889 C 261.637 219.294,262.610 219.294,261.667 218.889 C 261.259 218.714,260.593 218.575,260.185 218.581 C 259.590 218.590,259.626 218.651,260.370 218.889 M264.362 219.531 C 265.233 219.609,266.566 219.608,267.325 219.528 C 268.083 219.449,267.370 219.385,265.741 219.386 C 264.111 219.388,263.491 219.453,264.362 219.531 " stroke="none" fill="#8c8c8c" fill-rule="evenodd"></path><path id="path4" d="M126.296 198.778 C 126.194 209.819,126.238 218.726,126.392 218.571 C 126.547 218.416,126.630 209.383,126.577 198.497 L 126.481 178.704 126.296 198.778 M248.685 191.667 C 248.685 198.593,248.735 201.374,248.796 197.847 C 248.857 194.320,248.857 188.653,248.796 185.254 C 248.734 181.855,248.685 184.741,248.685 191.667 M180.853 181.388 C 183.054 181.453,186.554 181.453,188.631 181.387 C 190.708 181.321,188.907 181.268,184.630 181.268 C 180.352 181.268,178.653 181.322,180.853 181.388 M332.009 189.259 C 332.009 193.639,332.063 195.431,332.128 193.241 C 332.194 191.051,332.194 187.468,332.128 185.278 C 332.063 183.088,332.009 184.880,332.009 189.259 M88.318 202.593 C 88.318 211.454,88.366 215.079,88.426 210.648 C 88.485 206.218,88.485 198.968,88.426 194.537 C 88.366 190.106,88.318 193.731,88.318 202.593 M332.007 208.333 C 332.007 212.407,332.061 214.125,332.128 212.149 C 332.194 210.174,332.194 206.841,332.128 204.742 C 332.062 202.643,332.008 204.259,332.007 208.333 M282.679 204.444 C 282.679 205.157,282.755 205.449,282.848 205.093 C 282.941 204.736,282.941 204.153,282.848 203.796 C 282.755 203.440,282.679 203.731,282.679 204.444 " stroke="none" fill="#949494" fill-rule="evenodd"></path></g></svg>